<!--?xml version="1.0" encoding="utf-8"?-->
<!-- Generator: Adobe Illustrator 18.1.1, SVG Export Plug-In . SVG Version: 6.00 Build 0)  -->

<svg version="1.1" id="_x32_" xmlns="http://www.w3.org/2000/svg" xmlns:xlink="http://www.w3.org/1999/xlink" x="0px" y="0px" viewBox="0 0 512 512" style="width: 256px; height: 256px; opacity: 1;" xml:space="preserve">
<style type="text/css">
	.st0{fill:#4B4B4B;}
</style>
<g>
	<rect y="446.003" class="st0" width="512" height="53.3" style="fill: rgb(255, 255, 255);"></rect>
	<polygon class="st0" points="127.414,431.976 261.838,431.976 343.66,431.976 343.66,389.888 242.493,389.888 199.892,274.164 
		1.168,274.164 63.114,431.976 	" style="fill: rgb(255, 255, 255);"></polygon>
	<path class="st0" d="M60.637,104.537l50.938,39.3c0.212,0.168,0.468,0.257,0.708,0.408c0.106,0.053,0.212,0.123,0.319,0.177
		c4.398,2.451,10.23,1.159,14.124-3.124c0.106-0.133,0.229-0.204,0.336-0.336l62.424-73.84c3.558-3.991,3.611-9.725,0.16-12.805
		c-3.469-3.088-9.15-2.336-12.699,1.646l-58.344,62.336L73.539,86.927c-4.212-3.106-10.531-1.673-14.088,3.212
		C55.884,94.988,56.406,101.448,60.637,104.537z" style="fill: rgb(255, 255, 255);"></path>
	<path class="st0" d="M107.203,213.005c0,6.867,5.557,12.416,12.416,12.416c6.858,0,12.416-5.549,12.416-12.416
		c0-6.868-5.558-12.425-12.416-12.425C112.76,200.581,107.203,206.137,107.203,213.005z" style="fill: rgb(255, 255, 255);"></path>
	<path class="st0" d="M119.618,37.537c6.858,0,12.416-5.558,12.416-12.424c0-6.867-5.558-12.416-12.416-12.416
		c-6.859,0-12.416,5.549-12.416,12.416C107.203,31.98,112.76,37.537,119.618,37.537z" style="fill: rgb(255, 255, 255);"></path>
	<path class="st0" d="M177.255,176.704c-4.849,4.85-4.849,12.716,0,17.566c4.859,4.849,12.726,4.849,17.575,0
		c4.849-4.841,4.849-12.716,0-17.566C189.98,171.854,182.114,171.854,177.255,176.704z" style="fill: rgb(255, 255, 255);"></path>
	<path class="st0" d="M61.972,61.422c4.859-4.849,4.859-12.716,0-17.574c-4.858-4.85-12.717-4.841-17.566,0
		c-4.85,4.858-4.85,12.726,0,17.574C49.256,66.272,57.123,66.263,61.972,61.422z" style="fill: rgb(255, 255, 255);"></path>
	<path class="st0" d="M213.556,131.484c6.867,0,12.425-5.558,12.425-12.425c0-6.85-5.558-12.408-12.425-12.408
		c-6.858,0-12.416,5.558-12.416,12.416C201.14,125.926,206.698,131.484,213.556,131.484z" style="fill: rgb(255, 255, 255);"></path>
	<path class="st0" d="M25.681,131.484c6.867,0,12.416-5.558,12.425-12.417c0-6.858-5.567-12.433-12.425-12.416
		c-6.867,0-12.424,5.558-12.424,12.408C13.257,125.926,18.814,131.484,25.681,131.484z" style="fill: rgb(255, 255, 255);"></path>
	<path class="st0" d="M44.407,176.713c-4.85,4.849-4.841,12.716,0,17.557c4.858,4.849,12.726,4.858,17.574,0.009
		c4.85-4.85,4.85-12.726,0-17.566C57.132,171.854,49.256,171.854,44.407,176.713z" style="fill: rgb(255, 255, 255);"></path>
	<path class="st0" d="M316.754,185.545c3.097,15.645,8.314,29.46,15.163,36.256c0,8.15,0,14.115,0,18.876
		c0,0.468-0.092,0.982-0.243,1.495l35.358,15.177l35.331-15.177c-0.141-0.513-0.247-1.008-0.247-1.495c0-4.761,0-10.726,0-18.876
		c6.876-6.796,12.07-20.611,15.168-36.256c7.23-2.301,11.381-5.991,16.531-22.097c5.478-17.151-8.256-16.584-8.256-16.584
		c11.106-32.796-3.522-63.636-28.035-61.38c-16.912-26.372-73.544,6.035-91.304,3.761c0,9.062,4.225,15.832,4.225,15.832
		c-6.173,10.442-3.792,31.247-2.053,41.787c-1-0.008-13.438,0.107-8.155,16.584C305.391,179.554,309.519,183.244,316.754,185.545z" style="fill: rgb(255, 255, 255);"></path>
	<rect x="353.696" y="265.049" class="st0" width="26.651" height="20.584" style="fill: rgb(255, 255, 255);"></rect>
	<path class="st0" d="M361.749,371.809v60.167h149.074c-7.92-73.946-43.593-143.15-68.15-151.335
		c-2.717-0.902-5.611-2.168-8.602-3.619l-50.168,61.752l-3.557-40.486h-26.651l-3.561,40.486l-50.093-61.752
		c-3.088,1.54-6.07,2.806-8.698,3.619c-13.054,4.08-30.088,35.522-43.408,71.592l7.16,19.576H361.749z" style="fill: rgb(255, 255, 255);"></path>
</g>
</svg>
